Coordinates
version=1
nRows=43
nColumns=12
inDegrees=yes

Units are S.I. units (second, meters, Newtons, ...)
Angles are in degrees

endheader
time	SC_y	SC_z	SC_x	AC_y	AC_z	AC_x	GH_y	GH_z	GH_yy	EL_x	PS_y
       0.0              -19.67         -1.419          39.43          34.64         -1.158          12.62         -25.08          88.44          39.42          122.9          61.68
   0.01127              -19.67         -1.414          39.43          34.64         -1.157          12.62         -25.08          88.43          39.43          122.9          61.67
   0.02255              -19.68         -1.409          39.43          34.64         -1.155          12.62         -25.09          88.41          39.45          122.9          61.66
   0.03382              -19.69         -1.403          39.43          34.65         -1.154          12.62         -25.09           88.4          39.46          122.9          61.65
   0.04509              -19.69         -1.398          39.42          34.65         -1.152          12.62          -25.1          88.38          39.47          122.9          61.65
   0.05637               -19.7         -1.391          39.42          34.65          -1.15          12.61         -25.11          88.36          39.49          122.9          61.64
   0.06764              -19.71         -1.385          39.41          34.65         -1.148          12.61         -25.12          88.34           39.5          122.9          61.63
   0.07891              -19.72         -1.378          39.41          34.65         -1.146          12.61         -25.12          88.31          39.52          122.9          61.62
   0.09019              -19.72          -1.37          39.41          34.66         -1.144          12.61         -25.13          88.29          39.54          122.9          61.61
    0.1015              -19.73         -1.362           39.4          34.66         -1.142          12.61         -25.14          88.27          39.55          122.9          61.59
    0.1127              -19.74         -1.353           39.4          34.66         -1.139          12.61         -25.15          88.24          39.57          122.9          61.58
     0.124              -19.75         -1.344          39.39          34.66         -1.136          12.61         -25.16          88.21           39.6          122.9          61.57
    0.1353              -19.77         -1.334          39.39          34.67         -1.133          12.61         -25.17          88.18          39.62          122.9          61.55
    0.1466              -19.78         -1.323          39.38          34.67          -1.13           12.6         -25.19          88.14          39.65          122.9          61.54
    0.1578              -19.79         -1.311          39.37          34.68         -1.127           12.6          -25.2           88.1          39.67          122.9          61.52
    0.1691              -19.81         -1.298          39.37          34.68         -1.123           12.6         -25.21          88.06           39.7          122.9           61.5
    0.1804              -19.82         -1.284          39.36          34.68         -1.119           12.6         -25.23          88.02          39.74          122.9          61.48
    0.1916              -19.84         -1.269          39.35          34.69         -1.114           12.6         -25.25          87.97          39.77          122.9          61.46
    0.2029              -19.86         -1.253          39.34          34.69          -1.11          12.59         -25.27          87.92          39.81          122.9          61.44
    0.2142              -19.88         -1.234          39.33           34.7         -1.104          12.59         -25.29          87.86          39.85          122.9          61.41
    0.2255              -19.91         -1.214          39.32          34.71         -1.098          12.59         -25.31           87.8           39.9          122.9          61.39
    0.2367              -19.93         -1.193          39.31          34.71         -1.092          12.58         -25.34          87.73          39.95          122.9          61.35
     0.248              -19.96         -1.168           39.3          34.72         -1.085          12.58         -25.36          87.65          40.01          122.9          61.32
    0.2593              -19.99         -1.141          39.28          34.73         -1.077          12.58         -25.39          87.57          40.07          122.9          61.28
    0.2706              -20.03         -1.112          39.26          34.74         -1.068          12.57         -25.43          87.48          40.14          122.9          61.24
    0.2818              -20.06         -1.078          39.25          34.75         -1.059          12.57         -25.47          87.37          40.22          122.9          61.19
    0.2931              -20.11         -1.041          39.23          34.76         -1.048          12.56         -25.51          87.25           40.3          122.9          61.14
    0.3044              -20.16         -0.999           39.2          34.78         -1.036          12.55         -25.56          87.12           40.4          122.9          61.08
    0.3157              -20.21        -0.9516          39.18          34.79         -1.022          12.55         -25.61          86.97          40.51          122.9          61.01
    0.3269              -20.28        -0.8978          39.15          34.81         -1.006          12.54         -25.67           86.8          40.64          122.9          60.94
    0.3382              -20.35        -0.8363          39.11          34.83         -0.988          12.53         -25.74          86.61          40.78          122.9          60.85
    0.3495              -20.43        -0.7658          39.07          34.85        -0.9675          12.52         -25.82          86.38          40.94          122.9          60.75
    0.3608              -20.52        -0.6843          39.03          34.88        -0.9437          12.51         -25.92          86.13          41.13          122.9          60.63
     0.372              -20.63        -0.5897          38.98          34.91        -0.9161          12.49         -26.02          85.83          41.35          122.9           60.5
    0.3833              -20.76         -0.479          38.92          34.94        -0.8838          12.47         -26.15          85.48          41.61          122.9          60.34
    0.3946              -20.92        -0.3485          38.85          34.99        -0.8457          12.45          -26.3          85.07          41.91          122.9          60.16
    0.4058               -21.1        -0.1934          38.76          35.04        -0.8004          12.43         -26.48          84.58          42.28          122.9          59.94
    0.4171              -21.31      -0.007494          38.66           35.1        -0.7461           12.4         -26.69          83.99          42.71          122.9          59.67
    0.4284              -21.58         0.2174          38.54          35.17        -0.6805          12.37         -26.94          83.28          43.23          123.0          59.35
    0.4397               -21.9         0.4922          38.38          35.26        -0.6003          12.33         -27.26          82.42          43.87          123.0          58.96
    0.4509              -22.29         0.8313           38.2          35.37        -0.5013          12.27         -27.65          81.35          44.66          123.0          58.48
    0.4622              -22.79          1.254          37.97           35.5        -0.3779          12.21         -28.13          80.02          45.65          123.0          57.88
    0.4735              -23.41          1.787          37.67          35.67        -0.2224          12.13         -28.74          78.34          46.89          123.0          57.13
